<svg xmlns="http://www.w3.org/2000/svg" viewBox="0 0 1024 1024" role="img" aria-labelledby="title desc">
  <title id="title">流银纪 Logo 方案三：流银界门</title>
  <desc id="desc">上下左右双轴对称的液态银色宇宙界门</desc>
  <rect width="1024" height="1024" rx="224" fill="#050A14"/>
  <path fill="#DCE5EC" fill-rule="evenodd" d="
    M512 126C624 226 806 306 898 512C806 718 624 798 512 898C400 798 218 718 126 512C218 306 400 226 512 126Z
    M512 300C430 364 354 420 316 512C354 604 430 660 512 724C594 660 670 604 708 512C670 420 594 364 512 300Z"/>
  <path d="M512 300C430 364 354 420 316 512C354 604 430 660 512 724C594 660 670 604 708 512C670 420 594 364 512 300Z" fill="#08111B" stroke="#7891A2" stroke-width="16"/>
  <g fill="#050A14">
    <rect x="472" y="108" width="80" height="214" rx="40"/>
    <rect x="472" y="702" width="80" height="214" rx="40"/>
    <rect x="108" y="472" width="214" height="80" rx="40"/>
    <rect x="702" y="472" width="214" height="80" rx="40"/>
  </g>
  <rect x="434" y="434" width="156" height="156" rx="42" fill="#DCE5EC" transform="rotate(45 512 512)"/>
  <rect x="472" y="472" width="80" height="80" rx="22" fill="#050A14" transform="rotate(45 512 512)"/>
</svg>
