<svg xmlns="http://www.w3.org/2000/svg" viewBox="0 0 1024 1024" role="img" aria-labelledby="title desc">
  <title id="title">流银纪 Logo 方案一：宇宙沙漏 V6</title>
  <desc id="desc">圆角银色时间沙漏与顺时针旋转的双流星轨迹</desc>
  <rect width="1024" height="1024" rx="224" fill="#050A14"/>
  <defs>
    <g id="hourglass-half" fill="none" stroke="#DCE5EC" stroke-width="52" stroke-linecap="round" stroke-linejoin="round">
      <path d="M340 280H684"/>
      <path d="M350 294C382 360 424 410 478 458C497 475 527 475 546 458C600 410 642 360 674 294"/>
    </g>
    <linearGradient id="meteor-tail" gradientUnits="userSpaceOnUse" x1="261" y1="657" x2="290" y2="326">
      <stop offset="0" stop-color="#71899B" stop-opacity="0.08"/>
      <stop offset="0.42" stop-color="#71899B" stop-opacity="0.45"/>
      <stop offset="0.78" stop-color="#B8C8D3" stop-opacity="0.86"/>
      <stop offset="1" stop-color="#F1F6F9"/>
    </linearGradient>
    <g id="meteor">
      <path d="M290 326A290 290 0 0 0 261 657" fill="none" stroke="url(#meteor-tail)" stroke-width="11" stroke-linecap="round"/>
      <circle cx="290" cy="326" r="15" fill="#DCE5EC" opacity="0.14"/>
      <circle cx="290" cy="326" r="8" fill="#F1F6F9"/>
    </g>
  </defs>
  <circle cx="512" cy="512" r="368" fill="none" stroke="#183043" stroke-width="18"/>
  <g>
    <use href="#hourglass-half"/>
    <use href="#hourglass-half" transform="rotate(180 512 512)"/>
  </g>
  <rect x="456" y="456" width="112" height="112" rx="30" fill="#0A1621" stroke="#DCE5EC" stroke-width="20" transform="rotate(45 512 512)"/>
  <circle cx="512" cy="512" r="21" fill="#DCE5EC"/>
  <g>
    <use href="#meteor"/>
    <use href="#meteor" transform="rotate(180 512 512)"/>
  </g>
</svg>
